<svg xmlns="http://www.w3.org/2000/svg" viewBox="0 0 838 503" width="838" height="503">
	<style>
		tspan { white-space:pre }
		.shp0 { fill: #b6d5fc } 
		.shp1 { fill: #ffffff } 
	</style>
	<g id="#698bffff">
		<path id="Layer" fill-rule="evenodd" class="shp0" d="M472.85 2.14C482.37 0.25 492.1 1.33 501.73 1.13C509.53 0.9 517.01 3.69 524.78 3.35C528.4 4.09 531.83 5.65 535.62 5.6C539.86 7.22 544.74 7.05 548.58 9.66C549.61 9.66 550.65 9.75 551.68 9.95C577.74 17.9 602.19 31.15 623.07 48.66C630.15 55.24 637.98 61.12 643.9 68.85C663.6 90.52 678.48 116.61 687 144.63C689.16 150.22 690.05 156.17 691.82 161.87C692.15 164.36 692.16 166.92 693.16 169.27C694.71 172.81 693.45 176.77 694.49 180.42C696.35 188.07 695.54 196 695.64 203.8C695.45 212.71 696.04 221.69 694.38 230.5C693.41 233.51 693.74 236.71 693.46 239.81C692.86 243.7 691.24 247.41 691.44 251.41C695.64 250.95 699.88 251.48 704.1 251.33C710.2 251.51 716.39 250.88 722.39 252.32C727.16 252.94 732.2 251.95 736.64 254.3C759.46 258.32 780.84 269.68 797.67 285.56C802.94 289.68 806.69 295.3 811.24 300.13C822.35 314.48 830.74 331.12 834.65 348.88C835.31 350.76 836.02 352.66 835.91 354.7C835.76 358.81 837.93 362.58 837.86 366.68C837.82 374.71 837.79 382.74 837.7 390.76C837.66 394.86 835.56 398.62 835.61 402.73C835.73 406.19 833.58 409.16 833.33 412.58C827.26 434.03 815.13 453.51 799.38 469.19C789.11 478.36 777.9 486.64 765.36 492.43C762.76 493.58 760.34 495.24 757.41 495.32C751.08 498.74 743.87 500.22 736.91 501.75C733.01 503.5 728.66 502.18 724.65 503.42C719.41 505.1 713.86 504.28 708.46 504.47C516.44 503.19 324.42 502.02 132.42 500.68C126.96 501.18 121.91 498.43 116.48 498.79C112.63 499.15 109.32 496.67 105.51 496.66C80.61 491.04 57.68 477.63 39.45 459.83C21.88 442 8.9 419.55 2.82 395.24C2.6 391.81 0.52 388.77 0.73 385.29C0.94 380.84 -1.41 376.76 -1.22 372.31C-1.18 364.62 -1.09 356.93 -1.09 349.25C-1.34 343.46 1.59 338.14 1.21 332.33C2.93 327.44 3.65 322.3 5.37 317.41C10.94 299.89 20.34 283.7 31.97 269.51C37.29 263.83 42.91 258.42 48.54 253.04C65.27 239.1 85.21 228.89 106.44 223.93C109.06 222.83 111.87 222.19 114.73 222.57C116.26 218.47 114.67 214.23 114.99 210.03C115.25 203.98 114.4 197.79 116.2 191.91C117.46 188.34 116.38 184.35 118.19 180.92C120.99 169.63 126.03 158.8 133.06 149.51C143.73 134.07 160 123.01 177.59 116.88C181.41 115.99 185.01 114.16 188.99 114.06C192.37 113.82 195.53 112.19 198.94 112.17C203.97 112.14 208.99 112.26 214.01 112.22C218.81 111.95 223.18 114.44 227.96 114.48C243.07 118.13 257.39 125.48 268.85 136.02C276.3 143.59 283.91 151.03 291.01 158.92C291.47 158.87 292.39 158.78 292.85 158.74C293.22 154.97 294.4 151.09 296.76 148.09C296.91 146.8 296.94 145.51 296.92 144.23C297.43 143.74 298.46 142.75 298.97 142.26C298.7 139.19 300.43 136.6 301.49 133.85C308.88 114.03 319.5 95.41 332.64 78.84C336.26 75.08 338.91 70.51 342.69 66.89C347.57 62.11 352.38 57.25 357.33 52.53C375.57 36.79 396.25 23.75 418.75 15.02C422.34 13.63 426.13 12.76 429.54 10.94C430.16 11.04 431.41 11.22 432.03 11.31C432.35 10.89 432.99 10.06 433.31 9.65C441.24 7.74 449.11 5.65 457.19 4.56C462.1 1.97 467.68 3.58 472.85 2.14ZM264.45 194.97C263.99 267.98 263.51 341 263.02 414.01C262.56 417.88 266.24 421.18 269.97 421.04C280.54 421.12 291.12 421.19 301.7 421.2C303.05 419.71 304.47 418.3 305.97 416.98C306.26 388.07 306.36 359.17 306.58 330.27C333.58 330.45 360.6 330.62 387.6 330.8C390.68 330.93 394.04 329.19 394.85 326.05C396.36 320.79 395.45 315.24 395.7 309.85C395.59 304.87 396.49 299.69 394.79 294.89C393.59 291.77 389.98 290.58 386.89 290.75C360.2 290.67 333.52 290.42 306.84 290.27C306.97 269.6 307.11 248.93 307.24 228.27C339.91 228.49 372.59 228.7 405.27 228.92C408.59 229.05 412.23 226.44 412.24 222.92C412.49 214.93 412.25 206.92 412.49 198.94C412.4 196.21 412.97 192.83 410.54 190.89C407.61 187.98 403.2 189.04 399.5 188.84C356.82 188.63 314.14 188.3 271.47 188.03C267.74 187.85 264.02 191.09 264.45 194.97ZM450.44 196.18C449.99 269.19 449.52 342.21 449.02 415.22C448.89 417.31 449.65 419.53 451.49 420.7C454.12 422.96 457.82 422.14 460.98 422.32C503.99 422.51 547 422.86 590.01 423.13C593.73 423.3 597.45 420.05 597.04 416.18C597.09 407.5 597.15 398.82 597.21 390.14C597.67 386.26 593.99 382.97 590.26 383.11C557.59 382.9 524.91 382.69 492.23 382.48C492.38 362.81 492.5 343.15 492.63 323.48C520.9 323.69 549.18 323.79 577.46 324.07C579.32 322.02 581.19 319.75 581.49 316.88C582.06 311.29 581.56 305.66 581.8 300.06C581.77 295.85 582.36 291.37 580.53 287.43C579.06 284.72 575.8 283.85 572.93 283.96C546.25 283.88 519.57 283.62 492.89 283.48C493 265.48 493.12 247.48 493.24 229.48C525.91 229.69 558.59 229.91 591.26 230.13C594.99 230.31 598.71 227.06 598.29 223.18C598.35 214.5 598.4 205.83 598.46 197.15C598.93 193.27 595.25 189.97 591.52 190.11C546.84 189.83 502.16 189.54 457.48 189.24C453.75 189.05 450.02 192.3 450.44 196.18Z" />
	</g>
	<g id="#ffffffff">
		<path id="Layer" class="shp1" d="M264.45 194.97C264.02 191.09 267.74 187.85 271.47 188.03C314.14 188.3 356.82 188.63 399.5 188.84C403.2 189.04 407.61 187.98 410.54 190.89C412.97 192.83 412.4 196.21 412.49 198.94C412.25 206.92 412.49 214.93 412.24 222.92C412.23 226.44 408.59 229.05 405.27 228.92C372.59 228.7 339.91 228.49 307.24 228.27C307.11 248.93 306.97 269.6 306.84 290.27C333.52 290.42 360.2 290.67 386.89 290.75C389.98 290.58 393.59 291.77 394.79 294.89C396.49 299.69 395.59 304.87 395.7 309.85C395.45 315.24 396.36 320.79 394.85 326.05C394.04 329.19 390.68 330.93 387.6 330.8C360.6 330.62 333.58 330.45 306.58 330.27C306.36 359.17 306.26 388.07 305.97 416.98C304.47 418.3 303.05 419.71 301.7 421.2C291.12 421.19 280.54 421.12 269.97 421.04C266.24 421.18 262.56 417.88 263.02 414.01C263.51 341 263.99 267.98 264.45 194.97Z" />
		<path id="Layer" class="shp1" d="M450.44 196.18C450.02 192.3 453.75 189.05 457.48 189.24C502.16 189.54 546.84 189.83 591.52 190.11C595.25 189.97 598.93 193.27 598.46 197.15C598.4 205.83 598.35 214.5 598.29 223.18C598.71 227.06 594.99 230.31 591.26 230.13C558.59 229.91 525.91 229.69 493.24 229.48C493.12 247.48 493 265.48 492.89 283.48C519.57 283.62 546.25 283.88 572.93 283.96C575.8 283.85 579.06 284.72 580.53 287.43C582.36 291.37 581.77 295.85 581.8 300.06C581.56 305.66 582.06 311.29 581.49 316.88C581.19 319.75 579.32 322.02 577.46 324.07C549.18 323.79 520.9 323.69 492.63 323.48C492.5 343.15 492.38 362.81 492.23 382.48C524.91 382.69 557.59 382.9 590.26 383.11C593.99 382.97 597.67 386.26 597.21 390.14C597.15 398.82 597.09 407.5 597.04 416.18C597.45 420.05 593.73 423.3 590.01 423.13C547 422.86 503.99 422.51 460.98 422.32C457.82 422.14 454.12 422.96 451.49 420.7C449.65 419.53 448.89 417.31 449.02 415.22C449.52 342.21 449.99 269.19 450.44 196.18Z" />
	</g>
</svg>