<?xml version="1.0" encoding="UTF-8"?>
<svg width="317px" height="279px" viewBox="0 0 317 279" version="1.1" xmlns="http://www.w3.org/2000/svg" xmlns:xlink="http://www.w3.org/1999/xlink">
    <title>Untitled 2</title>
    <g id="Page-1" stroke="none" stroke-width="1" fill="none" fill-rule="evenodd">
        <g id="content-video" fill="#FFFFFF">
            <path d="M200,81.0012301 C200,82.3145919 199.289807,83.5294268 198.14219,84.1590129 L137.315538,117.561556 C136.776941,117.858121 136.181808,118 135.591633,118 C134.952856,118 134.326974,117.838416 133.759613,117.505396 C132.664566,116.85709 132,115.678709 132,114.402788 L132,47.5996723 C132,46.3217802 132.664566,45.1434002 133.759613,44.4960793 C134.845732,43.8576259 136.202637,43.8310237 137.314546,44.4418896 L198.141198,77.8434474 C199.292783,78.4828861 200,79.6878684 200,81.0012301 Z" id="Path" fill-rule="nonzero"></path>
            <path d="M55,0 L55,160 L263,160 L263,0 L55,0 Z M251,148 L67,148 L67,12 L251,12 L251,148 Z" id="Shape" fill-rule="nonzero"></path>
            <text id="Your-video-will-be-a" font-family="Dosis-ExtraLight_Regular, Dosis" font-size="28" font-weight="normal">
                <tspan x="0" y="272">Your video will be appear here</tspan>
            </text>
        </g>
    </g>
</svg>